<svg xmlns="http://www.w3.org/2000/svg" viewBox="0 0 350.37254 141.57415"><title>rhAsset 2300</title><g id="e1865485-12cc-4895-8d00-fb95b3e8f38f" data-name="Layer 2"><g id="f055e9d2-5ef4-4aa2-a3b6-4ec6dbd8b7a0" data-name="PRINT"><path id="a42b785a-67ed-4171-8124-26b3ca62a66a" data-name="CUSTOM" d="M118.2896,103.75785V80.30675a4.14746,4.14746,0,0,0-2.0738-3.5919L95.909,64.99065a15.20515,15.20515,0,0,0-10.5975-18.3526V23.18745a4.14747,4.14747,0,0,0-2.0739-3.5919L50.2601.55575a4.14729,4.14729,0,0,0-4.1477,0L25.796,12.28535A15.20231,15.20231,0,1,0,11.0604,37.816v23.4513a4.14758,4.14758,0,0,0,2.0738,3.5919l30.9043,17.8424v21.0566a15.20465,15.20465,0,1,0,14.7356,25.5306l20.3161,11.7296a4.147,4.147,0,0,0,4.1477,0l20.3164-11.7296a15.2024,15.2024,0,1,0,14.7353-25.5309Zm-30.2128-42.491a6.91275,6.91275,0,1,1-6.9128-6.9127A6.9206,6.9206,0,0,1,88.0768,61.26685ZM8.2955,23.18745a6.9128,6.9128,0,1,1,6.9128,6.9128A6.92075,6.92075,0,0,1,8.2955,23.18745ZM19.356,58.87225V37.816a15.20478,15.20478,0,0,0,10.5976-18.3523L48.1865,8.93705l28.8302,16.6452v21.0564a15.20464,15.20464,0,0,0-10.5976,18.3526L48.1865,75.51775Zm28.8302,66.4269a6.91275,6.91275,0,1,1,6.9128-6.9127A6.92058,6.92058,0,0,1,48.1862,125.29915Zm50.7476-6.9127a15.17764,15.17764,0,0,0,.4628,3.7237L81.164,132.637l-18.2326-10.5269a15.20481,15.20481,0,0,0-10.5975-18.3523V82.70125L70.5762,72.169a15.16989,15.16989,0,0,0,21.1758,0l18.2425,10.5323v21.0563a15.23311,15.23311,0,0,0-11.0607,14.6289Zm15.2081,6.9127a6.91275,6.91275,0,1,1,6.9128-6.9127A6.92058,6.92058,0,0,1,114.1419,125.29915Z" style="fill:#377ebd"/><path d="M135.27489,16.87836,143.04344,40.185l7.8169-23.30664h8.34082V50.24164h-6.33887V29.27045L147.667,44.71283a14.79771,14.79771,0,0,0-.40528,1.4541,7.62614,7.62614,0,0,0-.19043,1.42969,3.39854,3.39854,0,0,0,.19043,1.28662,1.95156,1.95156,0,0,0,.78662.977,6.29424,6.29424,0,0,1-2.83593.69141,6.95265,6.95265,0,0,1-2.54981-.35742,5.2645,5.2645,0,0,1-1.54932-.92969,7.39329,7.39329,0,0,1-1.21533-1.33447,8.43779,8.43779,0,0,1-.88183-1.57276q-.35742-.83349-.64356-1.64453l-5.00439-15.01367V50.24164h-6.33887V21.88275a4.73218,4.73218,0,0,1,1.45361-3.66992,5.66034,5.66034,0,0,1,3.9795-1.33447Z" style="fill:#377ebd"/><path d="M186.60692,21.35834a6.9767,6.9767,0,0,1,2.83593-3.66992,7.41512,7.41512,0,0,1,5.1709-.57178l12.77344,33.17285H200.81l-2.57422-6.81592q-1.42968,0-3.09765-.02343a16.27436,16.27436,0,0,0-3.02637.21435,4.75034,4.75034,0,0,0-2.12109.834,1.60615,1.60615,0,0,0-.38086,1.88281,5.31591,5.31591,0,0,1-2.59766-1.45362,4.12952,4.12952,0,0,1-1.07227-2.07373,3.91539,3.91539,0,0,1,.23829-2.16845,4.429,4.429,0,0,1,1.28613-1.78711,4.87348,4.87348,0,0,1,1.835-1.0249,11.71672,11.71672,0,0,1,2.14551-.4292,18.05651,18.05651,0,0,1,2.26367-.09522q1.144.0249,2.19238.02393l-4.48047-11.439q-1.52636,3.8606-2.69238,6.88721-1.169,3.02711-2.24023,5.76709-1.07227,2.74146-2.14453,5.52881-1.07228,2.78832-2.35938,6.17236h-6.57812Z" style="fill:#377ebd"/><path d="M218.44481,44.23627h11.43847v6.05322H212.10594V21.9306a4.42829,4.42829,0,0,1,1.72852-3.71777,7.15032,7.15032,0,0,1,4.61035-1.28711Z" style="fill:#377ebd"/><path d="M241.03563,16.92572V30.55707H252.189V16.92572h6.43457V50.28949H252.189V36.65814h-6.33887a7.03432,7.03432,0,0,1-1.62109-.19091,4.40006,4.40006,0,0,1-1.45313-.61963,4.14736,4.14736,0,0,1-1.12011-1.11963,3.96251,3.96251,0,0,1-.62012-1.73975V50.28949h-6.43457V22.02582a4.64258,4.64258,0,0,1,.54883-2.31152,4.75794,4.75794,0,0,1,1.42968-1.59668,6.00925,6.00925,0,0,1,2.04883-.90577A10.07,10.07,0,0,1,241.03563,16.92572Z" style="fill:#377ebd"/><path d="M263.38914,16.92572H269.729V37.70648a14.72566,14.72566,0,0,0,.26172,2.88379,6.16412,6.16412,0,0,0,.88183,2.24024,4.26991,4.26991,0,0,0,1.64453,1.45361,5.55149,5.55149,0,0,0,2.54981.52441,5.02634,5.02634,0,0,0,4.43262-1.90673,9.2136,9.2136,0,0,0,1.334-5.33838V22.69281a9.33957,9.33957,0,0,1,.28906-2.38281,4.20849,4.20849,0,0,1,1.00781-1.85889,4.60712,4.60712,0,0,1,1.94434-1.168,9.2917,9.2917,0,0,1,3.09863-.35742V36.65814a29.09456,29.09456,0,0,1-.52636,5.71924,11.40911,11.40911,0,0,1-1.88575,4.5044,8.97954,8.97954,0,0,1-3.70214,2.93115,14.52855,14.52855,0,0,1-5.9209,1.04834,14.18749,14.18749,0,0,1-5.874-1.04834,8.689,8.689,0,0,1-3.60644-2.93115,11.296,11.296,0,0,1-1.791-4.48047,31.85543,31.85543,0,0,1-.47754-5.74317Z" style="fill:#377ebd"/><path d="M303.71141,16.92572a11.94933,11.94933,0,0,1,3.83691.57227,22.12263,22.12263,0,0,1,3.07422,1.28662,12.57992,12.57992,0,0,1,4.623,3.98,17.17559,17.17559,0,0,1,2.62207,5.648,21.04476,21.04476,0,0,1,.64355,6.41064,19.41737,19.41737,0,0,1-1.335,6.24366,16.21048,16.21048,0,0,1-3.3125,5.19531,11.90793,11.90793,0,0,1-5.24316,3.21728,16.15253,16.15253,0,0,1-3.36035.54785q-2.12111.16773-4.50391.23829-2.38331.07178-4.74219.04785-2.35986-.0249-4.123-.02393V22.5976a8.49877,8.49877,0,0,1,.28613-2.24024,4.68154,4.68154,0,0,1,.92969-1.811,4.26615,4.26615,0,0,1,1.71582-1.19141,7.14636,7.14636,0,0,1,2.64551-.4292ZM298.23094,44.0932H302.186a15.17,15.17,0,0,0,3.4082-.35742,8.01226,8.01226,0,0,0,2.83594-1.26269,7.49878,7.49878,0,0,0,2.24023-2.7168A12.84278,12.84278,0,0,0,311.814,36.372a14.98343,14.98343,0,0,0,.26269-3.86035A13.42639,13.42639,0,0,0,311.314,28.77a8.21649,8.21649,0,0,0-1.93067-3.07422,8.47728,8.47728,0,0,0-2.62109-1.76367,7.89688,7.89688,0,0,0-3.19336-.667h-5.33789Z" style="fill:#377ebd"/><path d="M329.59227,21.35834a6.97666,6.97666,0,0,1,2.83594-3.66992,7.41508,7.41508,0,0,1,5.17089-.57178l12.77344,33.17285h-6.57715l-2.57422-6.81592q-1.42968,0-3.09765-.02343a16.27436,16.27436,0,0,0-3.02637.21435,4.75034,4.75034,0,0,0-2.12109.834,1.60616,1.60616,0,0,0-.38086,1.88281,5.31145,5.31145,0,0,1-2.59766-1.45362,4.13919,4.13919,0,0,1-1.07324-2.07373,3.93311,3.93311,0,0,1,.23828-2.16845,4.43117,4.43117,0,0,1,1.28711-1.78711,4.87348,4.87348,0,0,1,1.835-1.0249,11.71689,11.71689,0,0,1,2.14551-.4292,18.05659,18.05659,0,0,1,2.26367-.09522q1.144.0249,2.19238.02393l-4.48046-11.439q-1.52637,3.8606-2.69239,6.88721-1.16893,3.02711-2.24023,5.76709-1.07228,2.74146-2.14551,5.52881-1.07226,2.78832-2.3584,6.17236H318.3911Z" style="fill:#377ebd"/><path d="M140.57323,62.24262a.99139.99139,0,0,1-.07666.32275q-.0769.20434-.09375.25537a7.88,7.88,0,0,0-.20362,1.05371v10.438a.66613.66613,0,0,0,.10205.36523.54218.54218,0,0,1,.10157.26368q0,1.08837-.40772,1.17285a5.12669,5.12669,0,0,1-1.18994-.2207,4.35531,4.35531,0,0,1-1.2583-.42481.86707.86707,0,0,1-.374-.59473.25632.25632,0,0,1,.06835-.15332.4741.4741,0,0,0,.06788-.28906V62.44672a.45173.45173,0,0,0-.05957-.21289.4415.4415,0,0,1-.05958-.21241q.0337-.408.62891-.54394a4.24145,4.24145,0,0,1,.78223,0,6.40132,6.40132,0,0,1,1.22412.187Q140.573,61.86884,140.57323,62.24262Z" style="fill:#377ebd"/><path d="M149.855,74.3808a1.66526,1.66526,0,0,1,.13575.64551.70174.70174,0,0,1-.39161.69726,1.20544,1.20544,0,0,1-.4248.05078,6.45724,6.45724,0,0,1-1.37695-.17871,2.41006,2.41006,0,0,1-.96875-.34765.33955.33955,0,0,1-.085-.22168,1.41845,1.41845,0,0,1,.25488-.60352,1.40908,1.40908,0,0,0,.25488-.60351,64.34918,64.34918,0,0,0-.10156-6.74854q-.23877-.085-1.17285,1.52979a5.90082,5.90082,0,0,0-.98633,2.56738v3.17871a.73945.73945,0,0,1,.2207.54395.8761.8761,0,0,1-.57812.88378.4749.4749,0,0,1-.2041.03418,6.29046,6.29046,0,0,1-1.34278-.21289,2.54159,2.54159,0,0,1-.98535-.34765.49779.49779,0,0,1-.10254-.30664.7021.7021,0,0,1,.19531-.40821.78986.78986,0,0,0,.19532-.30566V66.32269a.74077.74077,0,0,0-.13575-.35693.45156.45156,0,0,1-.085-.374.65339.65339,0,0,1,.52735-.459,3.559,3.559,0,0,1,1.27441.187q1.08839.27174,1.19043.56055a.93381.93381,0,0,1-.05078.561,4.71305,4.71305,0,0,0-.1875.68017,1.37788,1.37788,0,0,0,.06836.40821,5.32841,5.32841,0,0,1,.71387-1.51319q.561-.79907,1.12207-.79883a3.98817,3.98817,0,0,1,1.49609.39942q.91846.39916,1.05371.72265Q149.85447,67.42743,149.855,74.3808Z" style="fill:#377ebd"/><path d="M156.85887,67.13861a.95182.95182,0,0,1-.2041.54395.52286.52286,0,0,1-.4082.2373.39614.39614,0,0,1-.11915-.01562,4.06152,4.06152,0,0,0-1.07128-.08594v6.71484a2.47839,2.47839,0,0,1,.11132.27246,1.46176,1.46176,0,0,1,.11036.50977c0,.3291-.22754.50391-.68067.52734a4.38465,4.38465,0,0,1-1.30859-.30664q-1.03711-.33984-1.10547-.6289a1.02932,1.02932,0,0,1,.11914-.501,1.7294,1.7294,0,0,0,.15332-.58691V67.8017h-.57813q-.32226,0-.79882-.56983a1.63965,1.63965,0,0,1-.47559-.90918.64446.64446,0,0,1,.19531-.459.58821.58821,0,0,1,.4336-.2041h1.22363V64.12934a1.194,1.194,0,0,1-.25488-.731.40579.40579,0,0,1,.30566-.4419,2.08655,2.08655,0,0,1,.42481-.03369,6.606,6.606,0,0,1,1.4707.19531,3.114,3.114,0,0,1,1.09668.39942.30655.30655,0,0,1,.11914.23779,1.00394,1.00394,0,0,1-.27246.51026,1.31268,1.31268,0,0,0-.28906.47607v.918h.54394q.16992,0,.71484.61181Q156.85839,66.88374,156.85887,67.13861Z" style="fill:#377ebd"/><path d="M164.42332,72.4931q.15236.25635-.66308,1.51368a5.47981,5.47981,0,0,1-1.7334,1.81836.71106.71106,0,0,1-.30664.05175,5.17808,5.17808,0,0,1-1.7334-.4082,3.25494,3.25494,0,0,1-1.49609-.88379,5.65044,5.65044,0,0,1-.98633-3.53613,7.92547,7.92547,0,0,1,.86719-3.77442,2.82263,2.82263,0,0,1,2.37988-1.81884,3.36369,3.36369,0,0,1,1.27539.272,4.20559,4.20559,0,0,1,1.51269.96924,2.14316,2.14316,0,0,1,.28907.918,7.82293,7.82293,0,0,1,.16992,1.59814,2.54,2.54,0,0,1-.374,1.59766,13.26149,13.26149,0,0,1-3.57032.6289,5.98419,5.98419,0,0,0,.2041,1.751q.23731.91845.49317.93555.33984.01611.81543-.56153a2.49646,2.49646,0,0,0,.52734-.833,8.517,8.517,0,0,1,.32324-1.05372,2.8872,2.8872,0,0,1,1.07129.27149A2.00885,2.00885,0,0,1,164.42332,72.4931ZM161.397,67.29144q-.28859-.03369-.80664.91748a4.77886,4.77886,0,0,0-.60352,1.81934,2.16864,2.16864,0,0,0,1.22363-.374q.271-.20361.27149-1.69922Q161.48192,67.32588,161.397,67.29144Z" style="fill:#377ebd"/><path d="M172.10789,66.45844a.3837.3837,0,0,1-.1875.44189,4.4448,4.4448,0,0,0-.39062.22119q-1.07081,1.6311-2.90723,4.40283,0,2.70264.0166,2.78809c.01172.05664.05371.20117.12793.43359a1.96989,1.96989,0,0,1,.11035.55274.43843.43843,0,0,1-.28906.4414,1.257,1.257,0,0,1-.50976.085,4.13492,4.13492,0,0,1-1.42774-.28907q-.9873-.33984-.98633-.86621a1.53622,1.53622,0,0,1,.13575-.49316,1.58377,1.58377,0,0,0,.13574-.56153V66.88373q-.186-.95216-.18652-.98633a.61877.61877,0,0,1,.47558-.66308,2.08329,2.08329,0,0,1,.49317-.05079,4.3855,4.3855,0,0,1,1.25.19532q.65331.19629.77343.4165a.3822.3822,0,0,1,.03418.17041,6.483,6.483,0,0,1-.23828.81592v.81592q.40724-.731.79883-1.46192.52734-.91845.78223-.96924a1.83262,1.83262,0,0,1,1.13867.4419Q172.022,66.11884,172.10789,66.45844Z" style="fill:#377ebd"/><path d="M180.8452,74.3808a1.66542,1.66542,0,0,1,.13574.64551.70175.70175,0,0,1-.3916.69726,1.20547,1.20547,0,0,1-.42481.05078,6.45732,6.45732,0,0,1-1.377-.17871,2.41006,2.41006,0,0,1-.96875-.34765.33955.33955,0,0,1-.085-.22168,1.41845,1.41845,0,0,1,.25488-.60352,1.40913,1.40913,0,0,0,.25489-.60351,64.34325,64.34325,0,0,0-.10157-6.74854q-.23877-.085-1.17285,1.52979a5.901,5.901,0,0,0-.98633,2.56738v3.17871a.73946.73946,0,0,1,.22071.54395.87611.87611,0,0,1-.57813.88378.4749.4749,0,0,1-.2041.03418,6.29039,6.29039,0,0,1-1.34277-.21289,2.54151,2.54151,0,0,1-.98535-.34765.49779.49779,0,0,1-.10254-.30664.7021.7021,0,0,1,.19531-.40821.78978.78978,0,0,0,.19531-.30566V66.32269a.74074.74074,0,0,0-.13574-.35693.45156.45156,0,0,1-.085-.374.65339.65339,0,0,1,.52734-.459,3.559,3.559,0,0,1,1.27442.187q1.08837.27174,1.19043.56055a.93375.93375,0,0,1-.05079.561,4.71305,4.71305,0,0,0-.1875.68017,1.37821,1.37821,0,0,0,.06836.40821,5.329,5.329,0,0,1,.71387-1.51319q.561-.79907,1.12207-.79883a3.98812,3.98812,0,0,1,1.49609.39942q.91846.39916,1.05372.72265Q180.84471,67.42743,180.8452,74.3808Z" style="fill:#377ebd"/><path d="M189.27684,72.4931q.15234.25635-.66309,1.51368a5.47971,5.47971,0,0,1-1.7334,1.81836.711.711,0,0,1-.30664.05175,5.178,5.178,0,0,1-1.73339-.4082,3.255,3.255,0,0,1-1.4961-.88379,5.65051,5.65051,0,0,1-.98633-3.53613,7.92559,7.92559,0,0,1,.86719-3.77442,2.82265,2.82265,0,0,1,2.37988-1.81884,3.36365,3.36365,0,0,1,1.27539.272,4.20563,4.20563,0,0,1,1.5127.96924,2.14335,2.14335,0,0,1,.28906.918,7.82293,7.82293,0,0,1,.16992,1.59814,2.54,2.54,0,0,1-.374,1.59766,13.26142,13.26142,0,0,1-3.57031.6289,5.98419,5.98419,0,0,0,.2041,1.751q.2373.91845.49316.93555.33985.01611.81543-.56153a2.49652,2.49652,0,0,0,.52735-.833,8.517,8.517,0,0,1,.32324-1.05372,2.88724,2.88724,0,0,1,1.07129.27149A2.00885,2.00885,0,0,1,189.27684,72.4931Zm-3.02637-5.20166q-.28857-.03369-.80664.91748a4.77883,4.77883,0,0,0-.60351,1.81934,2.16869,2.16869,0,0,0,1.22363-.374q.271-.20361.27148-1.69922Q186.33543,67.32588,186.25047,67.29144Z" style="fill:#377ebd"/><path d="M196.16258,67.13861a.95182.95182,0,0,1-.2041.54395.52286.52286,0,0,1-.4082.2373.39607.39607,0,0,1-.11914-.01562,4.06167,4.06167,0,0,0-1.07129-.08594v6.71484a2.47839,2.47839,0,0,1,.11132.27246,1.46176,1.46176,0,0,1,.11036.50977c0,.3291-.22754.50391-.68067.52734a4.38465,4.38465,0,0,1-1.30859-.30664q-1.03712-.33984-1.10547-.6289a1.02932,1.02932,0,0,1,.11914-.501,1.7294,1.7294,0,0,0,.15332-.58691V67.8017h-.57812q-.32228,0-.79883-.56983a1.63965,1.63965,0,0,1-.47559-.90918.64446.64446,0,0,1,.19531-.459.58821.58821,0,0,1,.4336-.2041h1.22363V64.12934a1.194,1.194,0,0,1-.25488-.731.40579.40579,0,0,1,.30566-.4419,2.08655,2.08655,0,0,1,.42481-.03369,6.606,6.606,0,0,1,1.4707.19531,3.114,3.114,0,0,1,1.09668.39942.30655.30655,0,0,1,.11914.23779,1.00394,1.00394,0,0,1-.27246.51026,1.313,1.313,0,0,0-.28906.47607v.918h.54394q.16992,0,.71485.61181Q196.16209,66.88374,196.16258,67.13861Z" style="fill:#377ebd"/><path d="M210.66258,62.24262a.95823.95823,0,0,1-.06738.35693,2.68649,2.68649,0,0,0-.15332.459V74.27826q0-.05127.085.62891.10254.78222-.2041,1.0205a2.21539,2.21539,0,0,1-1.377.13575,6.01412,6.01412,0,0,1-1.41113-.32325q-1.0371-.32226-1.13867-.67968a3.87924,3.87924,0,0,0-.05078-.73047q-.95216-2.51661-2.21-5.52539v5.03222a.79935.79935,0,0,0,.11914.35645,3.0584,3.0584,0,0,1,.15234.30664,1.60364,1.60364,0,0,1,.085.50977q0,.67968-.61133.67968a6.12776,6.12776,0,0,1-1.68359-.33984,3.14844,3.14844,0,0,1-1.15527-.52734.63624.63624,0,0,1,0-.69629,1.92883,1.92883,0,0,0,.20312-.52735V62.93939a1.37717,1.37717,0,0,0-.05078-.30566.63758.63758,0,0,1-.0166-.32324,1.13426,1.13426,0,0,1,.66309-.78174,1.24427,1.24427,0,0,1,.374-.03418,5.73133,5.73133,0,0,1,1.35937.16992,2.51183,2.51183,0,0,1,1.25879.57813,10.14087,10.14087,0,0,1,1.24024,3.11084,35.44718,35.44718,0,0,0,1.46191,4.31836V62.99066a1.56852,1.56852,0,0,0-.06738-.38281,1.52607,1.52607,0,0,1-.06836-.38232.50384.50384,0,0,1,.03418-.187c.05664-.19238.27246-.334.64551-.4248a2.4692,2.4692,0,0,1,.85058-.085,5.17854,5.17854,0,0,1,.93457.187Q210.646,61.9538,210.66258,62.24262Z" style="fill:#377ebd"/><path d="M218.89012,72.4931q.15234.25635-.66309,1.51368a5.47979,5.47979,0,0,1-1.73339,1.81836.71106.71106,0,0,1-.30664.05175,5.178,5.178,0,0,1-1.7334-.4082,3.255,3.255,0,0,1-1.4961-.88379,5.65051,5.65051,0,0,1-.98633-3.53613,7.92559,7.92559,0,0,1,.86719-3.77442,2.82265,2.82265,0,0,1,2.37989-1.81884,3.36373,3.36373,0,0,1,1.27539.272,4.20567,4.20567,0,0,1,1.51269.96924,2.14335,2.14335,0,0,1,.28906.918,7.823,7.823,0,0,1,.16993,1.59814,2.5399,2.5399,0,0,1-.374,1.59766,13.26142,13.26142,0,0,1-3.57031.6289,5.98419,5.98419,0,0,0,.2041,1.751q.2373.91845.49317.93555.33984.01611.81542-.56153a2.49636,2.49636,0,0,0,.52735-.833,8.517,8.517,0,0,1,.32324-1.05372,2.88724,2.88724,0,0,1,1.07129.27149A2.00885,2.00885,0,0,1,218.89012,72.4931Zm-3.02637-5.20166q-.28857-.03369-.80664.91748a4.77883,4.77883,0,0,0-.60351,1.81934,2.16867,2.16867,0,0,0,1.22363-.374q.271-.20361.27148-1.69922Q215.94871,67.32588,215.86375,67.29144Z" style="fill:#377ebd"/><path d="M225.77586,67.13861a.95182.95182,0,0,1-.2041.54395.52286.52286,0,0,1-.4082.2373.39607.39607,0,0,1-.11914-.01562,4.06167,4.06167,0,0,0-1.07129-.08594v6.71484a2.4792,2.4792,0,0,1,.11133.27246,1.462,1.462,0,0,1,.11035.50977c0,.3291-.22754.50391-.68067.52734a4.38471,4.38471,0,0,1-1.30859-.30664q-1.03711-.33984-1.10547-.6289a1.02932,1.02932,0,0,1,.11914-.501,1.7294,1.7294,0,0,0,.15332-.58691V67.8017h-.57812q-.32228,0-.79883-.56983a1.63972,1.63972,0,0,1-.47559-.90918.64447.64447,0,0,1,.19532-.459.58818.58818,0,0,1,.43359-.2041h1.22363V64.12934a1.194,1.194,0,0,1-.25488-.731.40579.40579,0,0,1,.30566-.4419,2.08655,2.08655,0,0,1,.42481-.03369,6.606,6.606,0,0,1,1.4707.19531,3.114,3.114,0,0,1,1.09668.39942.30655.30655,0,0,1,.11914.23779,1.00394,1.00394,0,0,1-.27246.51026,1.313,1.313,0,0,0-.28906.47607v.918h.54394q.16992,0,.71485.61181Q225.77537,66.88374,225.77586,67.13861Z" style="fill:#377ebd"/><path d="M238.49168,66.49262a52.11471,52.11471,0,0,0-1.59863,5.28662,19.12315,19.12315,0,0,0-.69727,3.16211v.6289c-.01074.29492-.11328.459-.30566.49317a6.3342,6.3342,0,0,1-1.46191-.27149q-1.27442-.32373-1.36036-.52734a4.36954,4.36954,0,0,1-.0332-.78223,20.89732,20.89732,0,0,1-.73144-4.23242q-.085.47607-.57813,2.48145a10.78052,10.78052,0,0,0-.374,1.93847c-.01172.23731-.02246.46973-.03418.69629q-.03369.47607-.32227.56152a1.06583,1.06583,0,0,1-.22168.01661,4.52977,4.52977,0,0,1-1.35937-.23731q-.88477-.27246-1.05469-.66308a.5157.5157,0,0,1-.02539-.28907,1.44521,1.44521,0,0,0-.02539-.459q-.35742-1.88671-.71387-3.75684-.35742-1.95556-.56055-3.94433-.05125-.5442-.05175-.61231,0-.69652.44238-.67969a4.40844,4.40844,0,0,1,1.22363.35694q.91846.37426.96973.59473a3.05519,3.05519,0,0,1-.03418.73144q.10107,1.30884.52637,4.62354l1.17382-5.59278q.13478-.6123.52637-.69678a3.918,3.918,0,0,1,1.02832.41651q.89356.43285.89258.58642a49.12569,49.12569,0,0,0,.74805,5.28663,49.43628,49.43628,0,0,1,1.34277-5.67774q.13623-.646.68066-.561a3.67088,3.67088,0,0,1,1.07032.374Q238.37254,66.11883,238.49168,66.49262Z" style="fill:#377ebd"/><path d="M244.67918,65.72748a3.02665,3.02665,0,0,1,1.44532,1.78516,8.23049,8.23049,0,0,1,.459,2.88964,9.36423,9.36423,0,0,1-.78223,3.97852q-.86718,1.80176-2.1582,1.63184-.47607-.11866-1.42871-.28907a7.4631,7.4631,0,0,1-1.25781-.25488,2.50071,2.50071,0,0,1-1.54688-1.64941,7.97241,7.97241,0,0,1-.52734-3.02539,8.87347,8.87347,0,0,1,.54394-3.1792,4.11993,4.11993,0,0,1,1.71778-2.19336,1.06892,1.06892,0,0,1,.50976-.10157,7.89746,7.89746,0,0,1,1.34278.22071A9.93364,9.93364,0,0,1,244.67918,65.72748Zm-1.90332,1.53027q-.46,0-.85058,1.11328a6.42893,6.42893,0,0,0-.39063,2.13379,10.165,10.165,0,0,0,.28906,2.41407q.32227,1.292.74805,1.39355.54346.11865.96875-1.22363a9.43746,9.43746,0,0,0,.4082-2.85645,6.83106,6.83106,0,0,0-.2207-1.71679Q243.42186,67.258,242.77586,67.25775Z" style="fill:#377ebd"/><path d="M254.33543,66.45844a.38373.38373,0,0,1-.1875.44189,4.4448,4.4448,0,0,0-.39062.22119q-1.0708,1.6311-2.90723,4.40283,0,2.70264.0166,2.78809c.01172.05664.05371.20117.12793.43359a1.97026,1.97026,0,0,1,.11035.55274.43844.43844,0,0,1-.28906.4414,1.257,1.257,0,0,1-.50976.085,4.13492,4.13492,0,0,1-1.42774-.28907q-.9873-.33984-.98633-.86621a1.53622,1.53622,0,0,1,.13575-.49316,1.58377,1.58377,0,0,0,.13574-.56153V66.88373q-.186-.95216-.18653-.98633a.61878.61878,0,0,1,.47559-.66308,2.08326,2.08326,0,0,1,.49316-.05079,4.3854,4.3854,0,0,1,1.25.19532q.65332.19629.77344.4165a.3822.3822,0,0,1,.03418.17041,6.483,6.483,0,0,1-.23828.81592v.81592q.40722-.731.79883-1.46192.52734-.91845.78222-.96924a1.83262,1.83262,0,0,1,1.13868.4419Q254.24949,66.11884,254.33543,66.45844Z" style="fill:#377ebd"/><path d="M263.5659,73.80267q.03369.32227-.64551,1.17286-.68115.8496-1.05468.79882-.731-.10107-3.09375-3.94335-.16994.186-.57813.59472v2.00586a1.94327,1.94327,0,0,0,.043.30567c.02832.14746.04785.25488.05957.32324.03418.38476-.0459.63476-.23828.748a1.06743,1.06743,0,0,1-.49317.085,3.43208,3.43208,0,0,1-1.25781-.23829q-.71337-.271-.71386-.6455V62.39545a1.29243,1.29243,0,0,1,.16992-.59473.806.806,0,0,1,.39062-.4082.44671.44671,0,0,1,.13672-.01709,3.81237,3.81237,0,0,1,1.23242.29785q.78956.29736.875.51807a.53269.53269,0,0,1,.05078.2041.69951.69951,0,0,1-.13574.34863.74744.74744,0,0,0-.13574.39942v5.89941l2.51562-3.45117a.71522.71522,0,0,1,.56153-.32324,1.61345,1.61345,0,0,1,.90039.4082,1.33432,1.33432,0,0,1,.66308.93506,4.55037,4.55037,0,0,1-.79882,1.32568q-1.25831,1.80176-1.47852,2.14258l2.21,3.043a1.32871,1.32871,0,0,0,.49219.35644C263.44676,73.582,263.55516,73.68939,263.5659,73.80267Z" style="fill:#377ebd"/><path d="M278.0327,68.92377a1.03145,1.03145,0,0,1-.39942.58594c-.25488.23242-.43945.34863-.55175.34863a1.29812,1.29812,0,0,0-.28907.01758v4.2832a5.51069,5.51069,0,0,1,.16993.62988q.15234,1.08691-.25489,1.27442a.73809.73809,0,0,1-.25586.03418,3.92146,3.92146,0,0,1-1.52929-.42481,2.44938,2.44938,0,0,1-1.22461-.88379c-.01074-.10254-.02832-.25586-.05078-.459-.02246-.08008.0166-.1875.11914-.32324a.76333.76333,0,0,0,.15332-.25489V70.31732q-.32373.03516-1.27539.25489a11.16422,11.16422,0,0,0-1.25782.34082v3.45019a.52021.52021,0,0,0,.11036.28125.79664.79664,0,0,1,.12793.2461q-.06885.27246-.11915.52734a.31938.31938,0,0,1-.1875.2373,3.47084,3.47084,0,0,1-1.52148-.31445q-1.24951-.416-1.31738-.6709a1.20666,1.20666,0,0,1-.03418-.4082,3.72555,3.72555,0,0,0,.05078-.47656V62.9057a4.92714,4.92714,0,0,1,.15332-.93506q.03369-.16992.57812-.47607a.57824.57824,0,0,1,.18653-.01709,4.71321,4.71321,0,0,1,1.32617.2041q.90089.27173.95215.71387a1.55786,1.55786,0,0,1-.14453.57812,2.05951,2.05951,0,0,0-.16114.57813v4.148q1.15576-.2893,2.53321-.59522V62.36176a1.50615,1.50615,0,0,0-.07715-.25537.64264.64264,0,0,1-.042-.35694q.085-.30615.56054-.39111.35742-.05053.71387-.085a2.48372,2.48372,0,0,1,1.09668.22119q.72217.27246.80762.57812a.56329.56329,0,0,1-.06836.35694,1.319,1.319,0,0,0-.11817.47607v4.6919c.05664.06787.32227.3125.79883.73047Q278.04979,68.73676,278.0327,68.92377Z" style="fill:#377ebd"/><path d="M285.06981,65.72748a3.02664,3.02664,0,0,1,1.44531,1.78516,8.23049,8.23049,0,0,1,.459,2.88964,9.36438,9.36438,0,0,1-.78222,3.97852q-.8672,1.80176-2.15821,1.63184-.47607-.11866-1.42871-.28907a7.4631,7.4631,0,0,1-1.25781-.25488,2.50068,2.50068,0,0,1-1.54687-1.64941,7.97221,7.97221,0,0,1-.52735-3.02539,8.87325,8.87325,0,0,1,.544-3.1792,4.11991,4.11991,0,0,1,1.71777-2.19336,1.069,1.069,0,0,1,.50977-.10157,7.89724,7.89724,0,0,1,1.34277.22071A9.93385,9.93385,0,0,1,285.06981,65.72748Zm-1.90332,1.53027q-.46,0-.85059,1.11328a6.42916,6.42916,0,0,0-.39062,2.13379,10.165,10.165,0,0,0,.28906,2.41407q.32226,1.292.74805,1.39355.54345.11865.96875-1.22363a9.43746,9.43746,0,0,0,.4082-2.85645,6.83152,6.83152,0,0,0-.2207-1.71679Q283.81248,67.258,283.16649,67.25775Z" style="fill:#377ebd"/><path d="M300.82957,74.3808a1.66526,1.66526,0,0,1,.13575.64551.70252.70252,0,0,1-.39063.69726,1.21565,1.21565,0,0,1-.42578.05078,6.45724,6.45724,0,0,1-1.377-.17871,2.41006,2.41006,0,0,1-.96875-.34765.33955.33955,0,0,1-.085-.22168,1.41845,1.41845,0,0,1,.25488-.60352,1.40908,1.40908,0,0,0,.25488-.60351,63.9995,63.9995,0,0,0-.10156-6.74854q-.27246-.085-1.10547,1.34326a5.59465,5.59465,0,0,0-.918,2.71973v3.332a2.27447,2.27447,0,0,1,.11914.61133.69768.69768,0,0,1-.44238.64648,1.20547,1.20547,0,0,1-.42481.05078,6.45732,6.45732,0,0,1-1.377-.17871,2.41006,2.41006,0,0,1-.96875-.34765.23112.23112,0,0,1-.06836-.1709,1.613,1.613,0,0,1,.24707-.61133,1.58153,1.58153,0,0,0,.2461-.64648,64.34325,64.34325,0,0,0-.10157-6.74854q-.23877-.085-1.17285,1.52979a5.901,5.901,0,0,0-.98633,2.56738v3.17871a.73946.73946,0,0,1,.22071.54395.87611.87611,0,0,1-.57813.88378.4749.4749,0,0,1-.2041.03418,6.29039,6.29039,0,0,1-1.34277-.21289,2.54167,2.54167,0,0,1-.98536-.34765.49785.49785,0,0,1-.10253-.30664.7021.7021,0,0,1,.19531-.40821.78978.78978,0,0,0,.19531-.30566V66.32269a.74074.74074,0,0,0-.13574-.35693.45156.45156,0,0,1-.085-.374.65339.65339,0,0,1,.52734-.459,3.559,3.559,0,0,1,1.27442.187q1.08837.27174,1.19043.56055a.93375.93375,0,0,1-.05079.561,4.71305,4.71305,0,0,0-.1875.68017,1.37788,1.37788,0,0,0,.06836.40821,5.329,5.329,0,0,1,.71387-1.51319q.561-.79907,1.12207-.79883a3.87873,3.87873,0,0,1,1.47852.42481,2.96513,2.96513,0,0,1,1.07129.69726,3.94167,3.94167,0,0,1,.33984,1.22364q.69726-1.29126.79883-1.479.57861-.86644,1.10547-.8667a3.98817,3.98817,0,0,1,1.49609.39942q.91845.39916,1.05371.72265Q300.82908,67.42743,300.82957,74.3808Z" style="fill:#377ebd"/><path d="M309.26121,72.4931q.15235.25635-.66308,1.51368a5.47981,5.47981,0,0,1-1.7334,1.81836.71106.71106,0,0,1-.30664.05175,5.17808,5.17808,0,0,1-1.7334-.4082,3.25494,3.25494,0,0,1-1.49609-.88379,5.65044,5.65044,0,0,1-.98633-3.53613,7.92547,7.92547,0,0,1,.86719-3.77442,2.82263,2.82263,0,0,1,2.37988-1.81884,3.36369,3.36369,0,0,1,1.27539.272,4.20559,4.20559,0,0,1,1.51269.96924,2.14316,2.14316,0,0,1,.28907.918,7.82293,7.82293,0,0,1,.16992,1.59814,2.54,2.54,0,0,1-.374,1.59766,13.26149,13.26149,0,0,1-3.57032.6289,5.98453,5.98453,0,0,0,.2041,1.751q.23732.91845.49317.93555.33984.01611.81543-.56153a2.49646,2.49646,0,0,0,.52734-.833,8.517,8.517,0,0,1,.32324-1.05372,2.8872,2.8872,0,0,1,1.07129.27149A2.00885,2.00885,0,0,1,309.26121,72.4931Zm-3.02636-5.20166q-.28858-.03369-.80664.91748a4.77886,4.77886,0,0,0-.60352,1.81934,2.16864,2.16864,0,0,0,1.22363-.374q.271-.20361.27149-1.69922Q306.31981,67.32588,306.23485,67.29144Z" style="fill:#377ebd"/><path d="M321.90867,73.36029q-.20361.79981-.64648.96973a.7622.7622,0,0,1-.36523.0166.6029.6029,0,0,0-.33106.0166l-2.5166,1.05469a.6137.6137,0,0,0-.24609.28906c-.085.1582-.167.249-.2461.27149a3.09516,3.09516,0,0,1-1.58105-.25489,3.30078,3.30078,0,0,1-1.46192-.73144,1.24923,1.24923,0,0,1-.11914-.84961,3.65786,3.65786,0,0,0,.03321-.42481V62.2934a.62074.62074,0,0,0-.13575-.28906.34388.34388,0,0,1-.10156-.20362q.03369-.323.59473-.47607a4.02178,4.02178,0,0,1,1.54687.25488q1.34326.39111,1.36035.918a.85752.85752,0,0,1-.1875.4082.854.854,0,0,0-.18652.40772v9.40136l1.76758-.76562a2.16434,2.16434,0,0,1,.57812-.30566q.23877-.0337,1.27539.72265Q321.97557,73.122,321.90867,73.36029Z" style="fill:#377ebd"/><path d="M330.74852,75.09467a.58859.58859,0,0,1-.2041.4082.49973.49973,0,0,1-.42481.13574q-2.10791-.29-2.3457-.79883a.29223.29223,0,0,1-.03418-.13671.32442.32442,0,0,1,.07617-.18653.4947.4947,0,0,0,.09375-.17871.38453.38453,0,0,1,.06836-.14453,2.72947,2.72947,0,0,0,.0166-.59473,3.40108,3.40108,0,0,0-.61133.81641,4.39627,4.39627,0,0,1-.748,1.01953,1.76769,1.76769,0,0,1-1.24121.50977,1.24665,1.24665,0,0,1-.79883-.32227,8.50735,8.50735,0,0,1-.66309-.66309q-.81591-.91845-.88476-1.00292a1.53177,1.53177,0,0,1-.35645-.90137,1.085,1.085,0,0,1,.03418-.27246,5.14436,5.14436,0,0,1,2.00586-2.83887,19.25674,19.25674,0,0,1,3.46777-2.05664q0-.54418-.27148-.69727-.17139-.1018-1.19043.38282a7.24914,7.24914,0,0,0-1.42773.82421,5.01547,5.01547,0,0,1-.44239.374.66922.66922,0,0,1-.52734.10254,3.14734,3.14734,0,0,1-.79883-.61231,2.63921,2.63921,0,0,1-.66309-.748.57154.57154,0,0,1,.28907-.71387q.01758-.01685.68066-.2041.62842-.33985,1.25781-.68018a6.29846,6.29846,0,0,1,2.24414-.68017,1.34564,1.34564,0,0,1,.88379.4082q.4424.39111.89258.77344.44971.38232.92676.73974a1.29655,1.29655,0,0,1,.54394.91846v6.42578A1.6286,1.6286,0,0,1,330.74852,75.09467Zm-2.71973-4.96387a3.67482,3.67482,0,0,0-1.42773.98535q-.44238.54492-.88379,1.07129a4.12191,4.12191,0,0,0-.67188.92676,2.04139,2.04139,0,0,0-.31445.8418c0,.09082.03418.13574.10156.13574q.35742,0,1.59864-1.53907A10.8678,10.8678,0,0,0,328.02879,70.1308Z" style="fill:#377ebd"/><path d="M339.7075,66.88373a4.66172,4.66172,0,0,1,.39063,2.02246,10.78989,10.78989,0,0,1-.62891,3.45117,9.46622,9.46622,0,0,1-1.39355,2.71973c-.05762.19336-.09082.3125-.10254.35742a.71879.71879,0,0,1-.2041.30566,1.37578,1.37578,0,0,1-.79883.20411,1.77063,1.77063,0,0,1-.96875-.30567q-.05127-.03369-.78223-.59472a1.87424,1.87424,0,0,0,.11914.374.46708.46708,0,0,1,0,.30566.54019.54019,0,0,1-.44238.40821,4.6666,4.6666,0,0,1-1.41113-.26368A2.5024,2.5024,0,0,1,332.312,75.333q-.10109-.15381.15332-.5957a1.81961,1.81961,0,0,0,.085-.71387V62.59955a.75007.75007,0,0,0-.16114-.31445.53284.53284,0,0,1-.12793-.39942.62491.62491,0,0,1,.69727-.54394,4.65236,4.65236,0,0,1,1.4707.32275q.90821.323,1.0625.66309.06738.15308-.11133.54394a2.432,2.432,0,0,0-.21191.646V66.3056q1.377-1.37694,2.21-1.2749a2.5972,2.5972,0,0,1,1.24121.57764A3.34024,3.34024,0,0,1,339.7075,66.88373Zm-1.98925.10205a4.816,4.816,0,0,0-1.46192,1.03662,4.43985,4.43985,0,0,0-1.03711,1.30957v4.58985a1.68555,1.68555,0,0,0,.4082.30566q.561.10254,1.36036-2.499a14.816,14.816,0,0,0,.78125-4.18213A2.54378,2.54378,0,0,0,337.71825,66.98578Z" style="fill:#377ebd"/></g></g></svg>